<mxfile host="Electron" modified="2024-04-08T21:28:31.152Z" agent="Mozilla/5.0 (Windows NT 10.0; Win64; x64) AppleWebKit/537.36 (KHTML, like Gecko) draw.io/22.1.21 Chrome/120.0.6099.109 Electron/28.1.0 Safari/537.36" etag="xtqOqrh2ib--LWz8N73m" version="22.1.21" type="device">
  <diagram id="C5RBs43oDa-KdzZeNtuy" name="Page-1">
    <mxGraphModel dx="757" dy="475" grid="1" gridSize="10" guides="1" tooltips="1" connect="1" arrows="1" fold="1" page="1" pageScale="1" pageWidth="827" pageHeight="1169" math="0" shadow="0">
      <root>
        <mxCell id="WIyWlLk6GJQsqaUBKTNV-0" />
        <mxCell id="WIyWlLk6GJQsqaUBKTNV-1" parent="WIyWlLk6GJQsqaUBKTNV-0" />
        <mxCell id="nbkMvrd8_ItyWInC_aRn-0" value="Main System" style="ellipse;whiteSpace=wrap;html=1;" vertex="1" parent="WIyWlLk6GJQsqaUBKTNV-1">
          <mxGeometry x="319" y="320" width="190" height="180" as="geometry" />
        </mxCell>
        <mxCell id="nbkMvrd8_ItyWInC_aRn-1" value="Blackjack Game Interface&lt;br&gt;&lt;br&gt;(starting new game, placing bets, receiving card, etc.)" style="whiteSpace=wrap;html=1;aspect=fixed;" vertex="1" parent="WIyWlLk6GJQsqaUBKTNV-1">
          <mxGeometry x="677" y="330" width="150" height="150" as="geometry" />
        </mxCell>
        <mxCell id="nbkMvrd8_ItyWInC_aRn-2" value="User Account Management&lt;br&gt;&lt;br&gt;(login, registration, updating profile information)" style="rounded=0;whiteSpace=wrap;html=1;" vertex="1" parent="WIyWlLk6GJQsqaUBKTNV-1">
          <mxGeometry y="340" width="160" height="140" as="geometry" />
        </mxCell>
        <mxCell id="nbkMvrd8_ItyWInC_aRn-9" value="" style="group" vertex="1" connectable="0" parent="WIyWlLk6GJQsqaUBKTNV-1">
          <mxGeometry x="509" y="450" width="150" height="30" as="geometry" />
        </mxCell>
        <mxCell id="nbkMvrd8_ItyWInC_aRn-3" value="" style="endArrow=classic;html=1;rounded=0;" edge="1" parent="nbkMvrd8_ItyWInC_aRn-9">
          <mxGeometry width="50" height="50" relative="1" as="geometry">
            <mxPoint x="140" y="20" as="sourcePoint" />
            <mxPoint y="20" as="targetPoint" />
          </mxGeometry>
        </mxCell>
        <mxCell id="nbkMvrd8_ItyWInC_aRn-4" value="Game results (win/loss)" style="text;html=1;align=center;verticalAlign=middle;resizable=0;points=[];autosize=1;strokeColor=none;fillColor=none;container=1;" vertex="1" parent="nbkMvrd8_ItyWInC_aRn-9">
          <mxGeometry width="150" height="30" as="geometry" />
        </mxCell>
        <mxCell id="nbkMvrd8_ItyWInC_aRn-10" value="" style="group" vertex="1" connectable="0" parent="WIyWlLk6GJQsqaUBKTNV-1">
          <mxGeometry x="170" y="450" width="150" height="30" as="geometry" />
        </mxCell>
        <mxCell id="nbkMvrd8_ItyWInC_aRn-11" value="" style="endArrow=classic;html=1;rounded=0;" edge="1" parent="nbkMvrd8_ItyWInC_aRn-10">
          <mxGeometry width="50" height="50" relative="1" as="geometry">
            <mxPoint x="140" y="20" as="sourcePoint" />
            <mxPoint y="20" as="targetPoint" />
          </mxGeometry>
        </mxCell>
        <mxCell id="nbkMvrd8_ItyWInC_aRn-12" value="Game results (win/loss)" style="text;html=1;align=center;verticalAlign=middle;resizable=0;points=[];autosize=1;strokeColor=none;fillColor=none;container=1;" vertex="1" parent="nbkMvrd8_ItyWInC_aRn-10">
          <mxGeometry width="150" height="30" as="geometry" />
        </mxCell>
        <mxCell id="nbkMvrd8_ItyWInC_aRn-14" value="" style="group" vertex="1" connectable="0" parent="WIyWlLk6GJQsqaUBKTNV-1">
          <mxGeometry x="520" y="420" width="140" height="30" as="geometry" />
        </mxCell>
        <mxCell id="nbkMvrd8_ItyWInC_aRn-5" value="" style="endArrow=classic;html=1;rounded=0;" edge="1" parent="nbkMvrd8_ItyWInC_aRn-14">
          <mxGeometry width="50" height="50" relative="1" as="geometry">
            <mxPoint x="140" y="20" as="sourcePoint" />
            <mxPoint y="20" as="targetPoint" />
          </mxGeometry>
        </mxCell>
        <mxCell id="nbkMvrd8_ItyWInC_aRn-7" value="Chip count updates" style="text;html=1;align=center;verticalAlign=middle;resizable=0;points=[];autosize=1;strokeColor=none;fillColor=none;" vertex="1" parent="nbkMvrd8_ItyWInC_aRn-14">
          <mxGeometry x="10" width="130" height="30" as="geometry" />
        </mxCell>
        <mxCell id="nbkMvrd8_ItyWInC_aRn-15" value="" style="group" vertex="1" connectable="0" parent="WIyWlLk6GJQsqaUBKTNV-1">
          <mxGeometry x="170" y="420" width="140" height="30" as="geometry" />
        </mxCell>
        <mxCell id="nbkMvrd8_ItyWInC_aRn-16" value="" style="endArrow=classic;html=1;rounded=0;" edge="1" parent="nbkMvrd8_ItyWInC_aRn-15">
          <mxGeometry width="50" height="50" relative="1" as="geometry">
            <mxPoint x="140" y="20" as="sourcePoint" />
            <mxPoint y="20" as="targetPoint" />
          </mxGeometry>
        </mxCell>
        <mxCell id="nbkMvrd8_ItyWInC_aRn-17" value="Chip count updates" style="text;html=1;align=center;verticalAlign=middle;resizable=0;points=[];autosize=1;strokeColor=none;fillColor=none;" vertex="1" parent="nbkMvrd8_ItyWInC_aRn-15">
          <mxGeometry x="10" width="130" height="30" as="geometry" />
        </mxCell>
        <mxCell id="nbkMvrd8_ItyWInC_aRn-20" value="" style="endArrow=classic;html=1;rounded=0;entryX=0.993;entryY=0.666;entryDx=0;entryDy=0;entryPerimeter=0;" edge="1" parent="WIyWlLk6GJQsqaUBKTNV-1" target="nbkMvrd8_ItyWInC_aRn-21">
          <mxGeometry width="50" height="50" relative="1" as="geometry">
            <mxPoint x="170" y="360" as="sourcePoint" />
            <mxPoint x="310.0000000000001" y="360" as="targetPoint" />
          </mxGeometry>
        </mxCell>
        <mxCell id="nbkMvrd8_ItyWInC_aRn-21" value="&lt;font style=&quot;font-size: 10px;&quot;&gt;Chip stack/Profile Pic fetching&lt;/font&gt;" style="text;html=1;align=center;verticalAlign=middle;resizable=0;points=[];autosize=1;strokeColor=none;fillColor=none;container=1;" vertex="1" parent="WIyWlLk6GJQsqaUBKTNV-1">
          <mxGeometry x="160" y="340" width="160" height="30" as="geometry" />
        </mxCell>
        <mxCell id="nbkMvrd8_ItyWInC_aRn-24" value="" style="group" vertex="1" connectable="0" parent="WIyWlLk6GJQsqaUBKTNV-1">
          <mxGeometry x="160" y="370" width="154.9799999999999" height="30" as="geometry" />
        </mxCell>
        <mxCell id="nbkMvrd8_ItyWInC_aRn-18" value="" style="endArrow=classic;html=1;rounded=0;entryX=0.005;entryY=0.389;entryDx=0;entryDy=0;entryPerimeter=0;" edge="1" parent="nbkMvrd8_ItyWInC_aRn-24">
          <mxGeometry width="50" height="50" relative="1" as="geometry">
            <mxPoint x="5.030000000000001" y="20" as="sourcePoint" />
            <mxPoint x="154.9799999999999" y="20.019999999999982" as="targetPoint" />
          </mxGeometry>
        </mxCell>
        <mxCell id="nbkMvrd8_ItyWInC_aRn-19" value="User authentication data" style="text;html=1;align=center;verticalAlign=middle;resizable=0;points=[];autosize=1;strokeColor=none;fillColor=none;" vertex="1" parent="nbkMvrd8_ItyWInC_aRn-24">
          <mxGeometry width="150" height="30" as="geometry" />
        </mxCell>
        <mxCell id="nbkMvrd8_ItyWInC_aRn-25" value="" style="group" vertex="1" connectable="0" parent="WIyWlLk6GJQsqaUBKTNV-1">
          <mxGeometry x="510" y="370" width="154.9799999999999" height="30" as="geometry" />
        </mxCell>
        <mxCell id="nbkMvrd8_ItyWInC_aRn-26" value="" style="endArrow=classic;html=1;rounded=0;entryX=0.005;entryY=0.389;entryDx=0;entryDy=0;entryPerimeter=0;" edge="1" parent="nbkMvrd8_ItyWInC_aRn-25">
          <mxGeometry width="50" height="50" relative="1" as="geometry">
            <mxPoint x="5.030000000000001" y="20" as="sourcePoint" />
            <mxPoint x="154.9799999999999" y="20.019999999999982" as="targetPoint" />
          </mxGeometry>
        </mxCell>
        <mxCell id="nbkMvrd8_ItyWInC_aRn-27" value="User authentication data" style="text;html=1;align=center;verticalAlign=middle;resizable=0;points=[];autosize=1;strokeColor=none;fillColor=none;" vertex="1" parent="nbkMvrd8_ItyWInC_aRn-25">
          <mxGeometry width="150" height="30" as="geometry" />
        </mxCell>
        <mxCell id="nbkMvrd8_ItyWInC_aRn-29" value="&lt;font style=&quot;font-size: 10px;&quot;&gt;Chip stack/Profile Pic fetching&lt;/font&gt;" style="text;html=1;align=center;verticalAlign=middle;resizable=0;points=[];autosize=1;strokeColor=none;fillColor=none;container=1;fontSize=10;" vertex="1" parent="WIyWlLk6GJQsqaUBKTNV-1">
          <mxGeometry x="509" y="340" width="160" height="30" as="geometry" />
        </mxCell>
        <mxCell id="nbkMvrd8_ItyWInC_aRn-30" value="" style="endArrow=classic;html=1;rounded=0;" edge="1" parent="nbkMvrd8_ItyWInC_aRn-29">
          <mxGeometry width="50" height="50" relative="1" as="geometry">
            <mxPoint x="10" y="20" as="sourcePoint" />
            <mxPoint x="160" y="20" as="targetPoint" />
          </mxGeometry>
        </mxCell>
      </root>
    </mxGraphModel>
  </diagram>
</mxfile>
